<svg width="20" height="20" viewBox="0 0 20 20" fill="none" xmlns="http://www.w3.org/2000/svg">
<path d="M18.8713 0L14.64 7.16364L11.5096 5.39618L10.186 7.51232L17.5073 11.6484L18.8308 9.52988L15.7535 7.79127L20 0.601178L18.8713 0ZM5.18284 3.99423C4.8392 3.99423 4.50963 4.12395 4.26664 4.35484C4.02364 4.58574 3.88713 4.8989 3.88713 5.22544C3.88713 5.55198 4.02364 5.86514 4.26664 6.09604C4.50963 6.32694 4.8392 6.45666 5.18284 6.45666C5.52649 6.45666 5.85605 6.32694 6.09905 6.09604C6.34204 5.86514 6.47855 5.55198 6.47855 5.22544C6.47855 4.8989 6.34204 4.58574 6.09905 4.35484C5.85605 4.12395 5.52649 3.99423 5.18284 3.99423ZM0.647855 5.22544C0.476033 5.22544 0.311249 5.2903 0.189753 5.40575C0.0682561 5.5212 0 5.67778 0 5.84105C0 6.00432 0.0682561 6.1609 0.189753 6.27635C0.311249 6.3918 0.476033 6.45666 0.647855 6.45666C0.819677 6.45666 0.984461 6.3918 1.10596 6.27635C1.22745 6.1609 1.29571 6.00432 1.29571 5.84105C1.29571 5.67778 1.22745 5.5212 1.10596 5.40575C0.984461 5.2903 0.819677 5.22544 0.647855 5.22544ZM2.59142 7.68787C2.24778 7.68787 1.91821 7.81759 1.67522 8.04848C1.43222 8.27938 1.29571 8.59254 1.29571 8.91908C1.29571 9.24562 1.43222 9.55878 1.67522 9.78968C1.91821 10.0206 2.24778 10.1503 2.59142 10.1503C2.93506 10.1503 3.26463 10.0206 3.50763 9.78968C3.75062 9.55878 3.88713 9.24562 3.88713 8.91908C3.88713 8.59254 3.75062 8.27938 3.50763 8.04848C3.26463 7.81759 2.93506 7.68787 2.59142 7.68787ZM9.06997 8.91908C7.62074 10.845 4.9697 12.3799 0 12.6127V13.8439C2.73876 17.9952 6.47855 20 11.6614 20H12.9571C14.6561 18.0458 16.0118 16.2665 16.8442 13.8439V12.6127L10.3657 8.91908H9.06997ZM9.75579 10.2753L15.3638 13.4736C14.6216 15.3779 13.4565 17.0486 12.0157 18.7303C7.77426 18.7688 3.9555 16.9719 1.71833 13.6347C5.75864 13.2523 8.22221 12.0529 9.75579 10.2753Z" fill="#787878"/>
</svg>
