<?xml version="1.0" encoding="utf-8"?>
<!-- Generator: Adobe Illustrator 27.5.0, SVG Export Plug-In . SVG Version: 6.00 Build 0)  -->
<svg version="1.1" id="Слой_1" xmlns="http://www.w3.org/2000/svg" xmlns:xlink="http://www.w3.org/1999/xlink" x="0px" y="0px"
	 viewBox="0 0 841.89 595.28" style="enable-background:new 0 0 841.89 595.28;" xml:space="preserve">
<style type="text/css">
	.st0{fill-rule:evenodd;clip-rule:evenodd;fill:#1F5473;}
	.st1{fill:#1A1A18;}
	.st2{fill:#E2000F;}
</style>
<path class="st0" d="M452.71,206.74h104.93v219.3H452.71l98.47-98.47c6.15-6.15,6.15-16.21,0-22.36L452.71,206.74z M300.55,206.74
	h104.93l-98.47,98.47c-6.15,6.15-6.15,16.21,0,22.36l98.47,98.47H300.55V206.74z"/>
<path class="st1" d="M389.47,278.05h23.17c-4.2,2.53-6.48,6.6-7.97,11.26h-15.2c-2.16,0-4.12,0.89-5.55,2.32
	c-1.43,1.43-2.32,3.4-2.32,5.55v39.41c0,2.16,0.89,4.12,2.32,5.55c1.43,1.43,3.4,2.32,5.55,2.32h15.2
	c1.48,4.66,3.77,8.73,7.97,11.26h-23.17c-5.27,0-10.05-2.15-13.51-5.61c-3.46-3.46-5.61-8.25-5.61-13.51v-39.41
	c0-5.27,2.15-10.05,5.61-13.51C379.42,280.2,384.21,278.05,389.47,278.05"/>
<path class="st2" d="M429.93,278.05h23.17c-4.2,2.53-6.48,6.6-7.97,11.26h-15.2c-2.16,0-4.12,0.89-5.55,2.32
	c-1.43,1.43-2.32,3.4-2.32,5.55v39.41c0,2.16,0.89,4.12,2.32,5.55c1.43,1.43,3.4,2.32,5.55,2.32h15.2
	c1.48,4.66,3.77,8.73,7.97,11.26h-23.17c-5.27,0-10.05-2.15-13.51-5.61c-3.46-3.46-5.61-8.25-5.61-13.51v-39.41
	c0-5.27,2.15-10.05,5.61-13.51C419.88,280.2,424.67,278.05,429.93,278.05"/>
<path class="st1" d="M466.5,278.05h-6.65c-1.37,0.88-2.64,1.94-3.76,3.15c-2.1,2.25-3.71,5.02-4.66,8.11h15.07
	c2.16,0,4.12,0.89,5.55,2.32c1.43,1.43,2.32,3.4,2.32,5.55v11.49h-16v10.32h16v17.6c0,2.16-0.89,4.12-2.32,5.55
	c-1.43,1.43-3.39,2.32-5.55,2.32h-15.07c0.95,3.09,2.56,5.86,4.66,8.11c1.12,1.21,2.39,2.27,3.76,3.15h6.65
	c5.27,0,10.05-2.15,13.51-5.61c3.46-3.46,5.61-8.25,5.61-13.51v-39.41c0-5.27-2.15-10.05-5.61-13.51
	C476.55,280.2,471.77,278.05,466.5,278.05"/>
</svg>
